<?xml version="1.0" encoding="UTF-8" standalone="no"?>
<svg
   xmlns:dc="http://purl.org/dc/elements/1.1/"
   xmlns:cc="http://creativecommons.org/ns#"
   xmlns:rdf="http://www.w3.org/1999/02/22-rdf-syntax-ns#"
   xmlns:svg="http://www.w3.org/2000/svg"
   xmlns="http://www.w3.org/2000/svg"
   viewBox="0 0 1200 258.61868"
   height="65"
   width="300"
   xml:space="preserve"
   id="svg2"
   version="1.1"><metadata
     id="metadata8"><rdf:RDF><cc:Work
         rdf:about=""><dc:format>image/svg+xml</dc:format><dc:type
           rdf:resource="http://purl.org/dc/dcmitype/StillImage" /></cc:Work></rdf:RDF></metadata><defs
     id="defs6"><clipPath
       id="clipPath18"
       clipPathUnits="userSpaceOnUse"><path
         id="path16"
         d="M 0,193.964 H 900 V 0 H 0 Z" /></clipPath></defs><g
     transform="matrix(1.3333333,0,0,-1.3333333,0,258.61867)"
     id="g10"><g
       id="g12"><g
         clip-path="url(#clipPath18)"
         id="g14"><g
           transform="translate(274.4478,136.9568)"
           id="g20"><path
             id="path22"
             style="fill:#00557a;fill-opacity:1;fill-rule:nonzero;stroke:none"
             d="m 0,0 c 4.961,0 8.632,1.292 11.013,3.873 2.378,2.582 3.569,6.1 3.569,10.557 C 14.582,24.759 9.721,29.924 0,29.924 H -17.924 V 0 Z M -17.924,-52.253 H -42.53 V 49.062 H 3.039 c 12.152,0 21.544,-2.733 28.177,-8.203 6.631,-5.467 9.949,-13.722 9.949,-24.758 0,-11.24 -3.369,-19.899 -10.101,-25.975 -6.735,-6.076 -16.077,-9.114 -28.025,-9.114 h -20.963 z" /></g><g
           transform="translate(323.6772,153.513)"
           id="g24"><path
             id="path26"
             style="fill:#00557a;fill-opacity:1;fill-rule:nonzero;stroke:none"
             d="m 0,0 c 1.519,1.314 4.177,2.785 7.974,4.406 3.798,1.619 8.05,3.012 12.76,4.176 4.709,1.164 9.24,1.748 13.594,1.748 8.405,0 14.227,-1.268 17.469,-3.799 v -16.555 c -4.051,0.911 -9.874,1.366 -17.469,1.366 -4.761,0 -8.658,-0.254 -11.695,-0.759 V -68.81 H 0 Z" /></g><g
           transform="translate(402.6626,131.6399)"
           id="g28"><path
             id="path30"
             style="fill:#00557a;fill-opacity:1;fill-rule:nonzero;stroke:none"
             d="M 0,0 H 28.405 C 27.694,5.469 26.252,9.365 24.076,11.696 21.897,14.025 18.684,15.19 14.43,15.19 6.328,15.19 1.519,10.125 0,0 M 50.885,-14.43 H 0.151 c 1.923,-10.633 9.062,-15.949 21.418,-15.949 3.745,0 7.416,0.53 11.013,1.595 3.592,1.063 7.416,2.453 11.469,4.178 v -19.445 c -8.305,-3.44 -17.621,-5.163 -27.95,-5.163 -7.799,0 -14.634,1.594 -20.506,4.783 -5.875,3.19 -10.431,7.772 -13.671,13.747 -3.241,5.974 -4.861,13.012 -4.861,21.115 0,13.367 3.315,23.719 9.949,31.062 6.633,7.341 16.076,11.013 28.33,11.013 23.999,0 35.848,-15.644 35.543,-46.936" /></g><g
           transform="translate(539.4004,161.5632)"
           id="g32"><path
             id="path34"
             style="fill:#00557a;fill-opacity:1;fill-rule:nonzero;stroke:none"
             d="M 0,0 -32.051,-76.86 H -54.684 L -86.734,0 h 24.456 L -41.925,-51.949 -23.849,0 Z" /></g><g
           transform="translate(561.3789,131.6399)"
           id="g36"><path
             id="path38"
             style="fill:#00557a;fill-opacity:1;fill-rule:nonzero;stroke:none"
             d="M 0,0 H 28.406 C 27.697,5.469 26.254,9.365 24.076,11.696 21.896,14.025 18.684,15.19 14.43,15.19 6.328,15.19 1.519,10.125 0,0 M 50.887,-14.43 H 0.15 c 1.924,-10.633 9.063,-15.949 21.418,-15.949 3.744,0 7.415,0.53 11.012,1.595 3.596,1.063 7.418,2.453 11.472,4.178 v -19.445 c -8.309,-3.44 -17.622,-5.163 -27.951,-5.163 -7.799,0 -14.634,1.594 -20.506,4.783 -5.875,3.19 -10.431,7.772 -13.671,13.747 -3.241,5.974 -4.861,13.012 -4.861,21.115 0,13.367 3.315,23.719 9.949,31.062 6.632,7.341 16.076,11.013 28.33,11.013 23.997,0 35.846,-15.644 35.545,-46.936" /></g><g
           transform="translate(638.6777,160.9558)"
           id="g40"><path
             id="path42"
             style="fill:#00557a;fill-opacity:1;fill-rule:nonzero;stroke:none"
             d="m 0,0 c 8.103,1.823 15.342,2.735 21.721,2.735 10.835,0 18.988,-2.128 24.457,-6.38 5.467,-4.253 8.203,-11.24 8.203,-20.962 V -76.252 H 31.746 v 47.088 c 0,8.81 -4.961,13.216 -14.886,13.216 -2.228,0 -4.506,-0.255 -6.835,-0.76 -2.331,-0.508 -4.154,-1.115 -5.468,-1.823 V -76.252 H -18.075 V -5.924 C -14.127,-3.797 -8.103,-1.823 0,0" /></g><g
           transform="translate(717.0859,87.8938)"
           id="g44"><path
             id="path46"
             style="fill:#00557a;fill-opacity:1;fill-rule:nonzero;stroke:none"
             d="m 0,0 c -4.406,4.151 -6.608,10.124 -6.608,17.924 v 38.43 H -17.849 V 73.669 H -6.608 V 94.783 H 17.089 V 73.669 h 16.86 V 56.354 H 17.089 V 20.809 c 0,-2.634 0.556,-4.583 1.67,-5.847 1.113,-1.269 2.987,-1.899 5.62,-1.899 1.619,0 3.288,0.278 5.014,0.834 1.719,0.556 3.238,1.342 4.556,2.356 V -3.038 c -3.85,-2.127 -8.56,-3.19 -14.127,-3.19 C 11.011,-6.228 4.405,-4.151 0,0" /></g><g
           transform="translate(807.3271,106.3489)"
           id="g48"><path
             id="path50"
             style="fill:#00557a;fill-opacity:1;fill-rule:nonzero;stroke:none"
             d="m 0,0 c 2.833,3.897 4.255,9.593 4.255,17.088 0,8.203 -1.394,14.052 -4.18,17.544 -2.783,3.494 -7.013,5.241 -12.68,5.241 -5.874,0 -10.105,-1.747 -12.684,-5.241 -2.583,-3.492 -3.875,-9.341 -3.875,-17.544 0,-7.798 1.343,-13.569 4.025,-17.315 2.684,-3.749 6.86,-5.62 12.534,-5.62 C -7.039,-5.847 -2.837,-3.9 0,0 m -41.772,-13.595 c -6.481,6.885 -9.722,17.114 -9.722,30.683 0,14.178 3.217,24.506 9.646,30.988 6.43,6.479 16.179,9.721 29.243,9.721 13.06,0 22.881,-3.317 29.465,-9.949 6.583,-6.634 9.875,-16.887 9.875,-30.76 0,-13.366 -3.395,-23.544 -10.176,-30.53 -6.788,-6.987 -16.509,-10.481 -29.164,-10.481 -12.966,0 -22.688,3.441 -29.167,10.328" /></g><g
           transform="translate(853.0654,83.8694)"
           id="g52"><path
             id="path54"
             style="fill:#00557a;fill-opacity:1;fill-rule:nonzero;stroke:none"
             d="m 0,0 c -3.646,0.96 -7.697,2.354 -12.153,4.177 v 19.897 c 8.203,-6.177 16.81,-9.264 25.822,-9.264 3.442,0 5.95,0.58 7.518,1.746 1.57,1.162 2.357,2.757 2.357,4.785 0,2.328 -1.268,4.048 -3.797,5.163 -2.535,1.114 -6.586,2.329 -12.153,3.646 -5.874,1.215 -10.71,3.646 -14.507,7.291 -3.797,3.645 -5.695,8.963 -5.695,15.949 0,5.975 1.519,10.886 4.556,14.735 3.037,3.847 6.86,6.657 11.469,8.43 4.607,1.771 9.393,2.659 14.354,2.659 6.078,0 11.013,-0.532 14.811,-1.595 3.797,-1.064 7.519,-2.71 11.164,-4.936 V 54.909 c -5.165,2.835 -9.166,4.862 -11.999,6.077 -2.837,1.216 -6.129,1.823 -9.875,1.823 -3.747,0 -6.53,-0.584 -8.353,-1.748 -1.824,-1.164 -2.734,-2.81 -2.734,-4.936 0,-2.532 1.011,-4.38 3.038,-5.544 2.024,-1.165 5.262,-2.354 9.721,-3.57 5.061,-1.317 9.06,-2.608 12,-3.874 2.934,-1.266 5.566,-3.443 7.898,-6.532 2.329,-3.088 3.493,-7.418 3.493,-12.986 C 46.73,14.908 43.442,8.556 37.063,4.556 30.684,0.557 22.581,-1.443 12.759,-1.443 7.898,-1.443 3.644,-0.962 0,0" /></g><g
           transform="translate(177.4951,73.8987)"
           id="g56"><path
             id="path58"
             style="fill:#00abdb;fill-opacity:1;fill-rule:nonzero;stroke:none"
             d="m 0,0 c -2.652,-7.235 -7.334,-11.722 -12.868,-14.406 -10.183,-4.978 -23.149,-3.798 -31.203,-2.325 l -7.596,1.801 H -51.7 l -21.675,5.14 -16.863,3.995 -26.52,6.286 c -23.968,5.697 -35.231,15.782 -40.273,25.539 -5.37,10.478 -3.602,20.563 -2.587,24.393 0.655,1.867 1.376,3.733 2.16,5.533 1.18,2.816 2.522,5.534 4.028,8.186 l 0.034,0.033 c 3.666,6.581 8.283,12.704 13.751,18.172 6.712,6.712 14.341,12.179 22.624,16.174 11.264,5.501 23.673,8.382 36.606,8.382 21.218,0 41.419,-7.923 56.939,-22.428 0.753,-0.655 1.506,-1.375 2.259,-2.128 4.322,-4.323 8.12,-9.037 11.329,-14.079 C -4.944,60.606 -1.31,52.224 0.851,43.384 1.801,39.618 2.456,35.787 2.849,31.891 3.143,29.01 3.307,26.096 3.307,23.148 V 23.083 C 3.307,15.16 2.095,7.399 0,0 m -45.872,-53.141 c -10.739,-4.911 -22.461,-7.595 -34.543,-7.595 -10.412,0 -20.562,1.931 -29.992,5.566 -10.837,4.158 -20.759,10.575 -29.238,18.99 -4.093,4.093 -7.629,8.545 -10.707,13.293 -1.31,1.997 -2.521,4.061 -3.667,6.189 -4.355,10.87 7.662,10.216 15.749,8.709 l 34.019,-8.055 16.862,-3.994 40.306,-9.527 c 9.691,-2.686 28.06,-10.119 1.211,-23.576 M -11.983,91.58 c -5.927,5.959 -12.508,11.099 -19.613,15.225 -14.635,8.644 -31.4,13.26 -48.819,13.26 -25.997,0 -50.259,-10.15 -68.595,-28.485 -18.302,-18.172 -28.485,-42.598 -28.485,-68.432 0,-25.963 10.183,-50.258 28.485,-68.561 18.336,-18.336 42.598,-28.485 68.595,-28.485 25.834,0 50.227,10.149 68.432,28.485 18.335,18.303 28.485,42.598 28.485,68.561 0,25.834 -10.15,50.26 -28.485,68.432" /></g><g
           transform="translate(167.6069,142.1663)"
           id="g60"><path
             id="path62"
             style="fill:#98d5ea;fill-opacity:1;fill-rule:nonzero;stroke:none"
             d="m 0,0 c -0.033,-4.649 -1.08,-9.659 -3.962,-14.603 -3.83,1.342 -8.382,2.128 -13.719,2.128 -3.7,0 -7.76,-0.393 -12.278,-1.244 l -25.211,-4.813 -15.815,10.412 38.472,7.334 c 0,0.033 0.033,0.033 0.033,0.033 14.145,2.685 18.597,9.626 18.892,16.961 0.753,-0.656 1.506,-1.376 2.259,-2.129 C -7.007,9.757 -3.209,5.042 0,0" /></g><g
           transform="translate(93.8716,120.0979)"
           id="g64"><path
             id="path66"
             style="fill:#98d5ea;fill-opacity:1;fill-rule:nonzero;stroke:none"
             d="m 0,0 -45.872,-8.742 c -13.097,-2.488 -21.806,-6.745 -27.536,-11.427 -5.369,10.478 -3.602,20.563 -2.587,24.393 0.655,1.866 1.376,3.733 2.161,5.533 2.62,-5.369 10.707,-8.349 29.436,-4.78 h 0.032 l 28.552,5.435 z" /></g><g
           transform="translate(90.1064,53.8606)"
           id="g68"><path
             id="path70"
             style="fill:#98d5ea;fill-opacity:1;fill-rule:nonzero;stroke:none"
             d="m 0,0 -12.376,-9.037 c -14.538,-10.609 -14.31,-19.743 -10.642,-26.095 -10.837,4.158 -20.759,10.575 -29.238,18.99 -4.093,4.093 -7.63,8.545 -10.707,13.293 9.757,-5.107 24.786,-8.709 41.091,3.209 h 0.032 l 4.977,3.634 z" /></g><g
           transform="translate(180.3437,105.7893)"
           id="g72"><path
             id="path74"
             style="fill:#98d5ea;fill-opacity:1;fill-rule:nonzero;stroke:none"
             d="m 0,0 c -3.241,4.748 -8.84,7.498 -18.434,0.524 l -10.969,-8.021 -11.754,7.759 13.686,9.987 c 5.01,3.667 8.481,7.563 10.772,11.525 C -9.855,19.449 -5.173,15.487 -1.998,11.493 -1.048,7.728 -0.393,3.896 0,0" /></g><g
           transform="translate(139.5801,90.0081)"
           id="g76"><path
             id="path78"
             style="fill:#98d5ea;fill-opacity:1;fill-rule:nonzero;stroke:none"
             d="m 0,0 -35.46,-25.899 -16.863,3.995 40.568,29.632 z" /></g><g
           transform="translate(178.3462,117.2825)"
           id="g80"><path
             id="path82"
             style="fill:#45bfe2;fill-opacity:1;fill-rule:nonzero;stroke:none"
             d="m 0,0 c -3.176,3.994 -7.858,7.956 -14.701,10.281 2.882,4.944 3.929,9.953 3.962,14.603 C -5.795,17.222 -2.161,8.84 0,0" /></g><g
           transform="translate(96.6221,134.0462)"
           id="g84"><path
             id="path86"
             style="fill:#98d5ea;fill-opacity:1;fill-rule:nonzero;stroke:none"
             d="m 0,0 -18.564,-3.536 -7.433,4.911 h -0.033 c -21.053,13.883 -37.032,8.939 -46.493,2.652 3.666,6.581 8.283,12.704 13.751,18.172 6.712,6.713 14.341,12.18 22.625,16.175 -2.98,-5.698 -2.784,-12.737 7.662,-19.613 z" /></g><g
           transform="translate(139.187,106.051)"
           id="g88"><path
             id="path90"
             style="fill:#98d5ea;fill-opacity:1;fill-rule:nonzero;stroke:none"
             d="m 0,0 -11.362,-8.315 -33.953,22.362 18.565,3.536 z" /></g><g
           transform="translate(112.4365,123.634)"
           id="g92"><path
             id="path94"
             style="fill:#45bfe2;fill-opacity:1;fill-rule:nonzero;stroke:none"
             d="m 0,0 -18.565,-3.536 -15.814,10.412 18.565,3.536 z" /></g><g
           transform="translate(180.8018,96.9817)"
           id="g96"><path
             id="path98"
             style="fill:#98d5ea;fill-opacity:1;fill-rule:nonzero;stroke:none"
             d="m 0,0 c 0,-7.923 -1.212,-15.684 -3.307,-23.083 -2.652,-7.235 -7.334,-11.722 -12.867,-14.406 0.065,7.662 -2.554,15.65 -11.198,21.381 l -13.85,9.134 11.361,8.285 L -27.863,0 C -13.261,-9.593 -4.846,-6.45 0,0" /></g><g
           transform="translate(150.9409,98.2923)"
           id="g100"><path
             id="path102"
             style="fill:#45bfe2;fill-opacity:1;fill-rule:nonzero;stroke:none"
             d="m 0,0 -11.361,-8.284 -11.755,7.727 11.362,8.316 z" /></g><path
           id="path104"
           style="fill:#00557a;fill-opacity:1;fill-rule:nonzero;stroke:none"
           d="m 231.917,51.958 h 7.215 V 8.596 h -7.215 z" /><g
           transform="translate(294.4058,51.9583)"
           id="g106"><path
             id="path108"
             style="fill:#00557a;fill-opacity:1;fill-rule:nonzero;stroke:none"
             d="m 0,0 v -43.362 h -6.435 l -23.471,32.246 v -32.246 h -6.825 V 0 h 6.892 L -6.825,-31.854 V 0 Z" /></g><g
           transform="translate(312.9473,51.9583)"
           id="g110"><path
             id="path112"
             style="fill:#00557a;fill-opacity:1;fill-rule:nonzero;stroke:none"
             d="M 0,0 H 27.824 V -6.044 H 7.152 v -12.938 h 18.072 v -6.112 H 7.152 V -43.362 H 0 Z" /></g><g
           transform="translate(382.8667,17.926)"
           id="g114"><path
             id="path116"
             style="fill:#00557a;fill-opacity:1;fill-rule:nonzero;stroke:none"
             d="m 0,0 c 2.057,2.577 3.089,6.707 3.089,12.387 0,5.631 -1.041,9.729 -3.121,12.284 -2.082,2.558 -5.31,3.838 -9.688,3.838 -4.377,0 -7.606,-1.28 -9.685,-3.838 -2.082,-2.555 -3.12,-6.672 -3.12,-12.352 0,-5.678 1.038,-9.796 3.12,-12.351 2.079,-2.559 5.308,-3.834 9.685,-3.834 4.422,0 7.66,1.288 9.72,3.866 m -24.671,-4.454 c -3.47,3.771 -5.203,9.361 -5.203,16.773 0,7.368 1.714,12.949 5.136,16.743 3.425,3.79 8.431,5.688 15.018,5.688 6.546,0 11.552,-1.876 15.018,-5.625 3.467,-3.749 5.203,-9.352 5.203,-16.806 0,-7.367 -1.724,-12.948 -5.171,-16.741 -3.444,-3.791 -8.463,-5.688 -15.05,-5.688 -6.501,0 -11.485,1.884 -14.951,5.656" /></g><g
           transform="translate(417.3506,30.8294)"
           id="g118"><path
             id="path120"
             style="fill:#00557a;fill-opacity:1;fill-rule:nonzero;stroke:none"
             d="m 0,0 h 10.075 c 2.861,0 4.997,0.629 6.403,1.886 1.41,1.258 2.114,3.165 2.114,5.723 0,2.47 -0.574,4.333 -1.723,5.59 -1.149,1.258 -3.022,1.886 -5.622,1.886 L 0,15.085 Z M 19.307,-22.233 9.165,-5.85 H 0 v -16.383 h -7.152 v 43.362 h 19.243 c 4.552,0 8.028,-1.095 10.434,-3.282 2.407,-2.187 3.61,-5.451 3.61,-9.784 0,-3.12 -0.857,-5.85 -2.568,-8.193 -1.714,-2.34 -4.022,-3.835 -6.924,-4.485 l 11.571,-17.618 z" /></g><g
           transform="translate(503.5986,51.9583)"
           id="g122"><path
             id="path124"
             style="fill:#00557a;fill-opacity:1;fill-rule:nonzero;stroke:none"
             d="m 0,0 v -43.362 h -7.148 v 33.093 l -14.498,-20.024 -13.85,19.894 v -32.963 h -6.955 V 0 h 7.475 L -21.322,-20.15 -7.345,0 Z" /></g><g
           transform="translate(545.3867,26.2141)"
           id="g126"><path
             id="path128"
             style="fill:#00557a;fill-opacity:1;fill-rule:nonzero;stroke:none"
             d="M 0,0 -6.761,18.596 -13.456,0 Z m 2.146,-5.851 h -17.748 l -4.225,-11.767 h -7.152 l 16.904,43.362 H -2.47 L 13.98,-17.618 H 6.437 Z" /></g><g
           transform="translate(579.3115,45.9143)"
           id="g130"><path
             id="path132"
             style="fill:#00557a;fill-opacity:1;fill-rule:nonzero;stroke:none"
             d="M 0,0 H -13.977 V 6.044 H 21.192 V 0 H 7.152 V -37.318 H 0 Z" /></g><path
           id="path134"
           style="fill:#00557a;fill-opacity:1;fill-rule:nonzero;stroke:none"
           d="m 615.459,51.958 h 7.215 V 8.596 h -7.215 z" /><g
           transform="translate(639.4482,30.3128)"
           id="g136"><path
             id="path138"
             style="fill:#00557a;fill-opacity:1;fill-rule:nonzero;stroke:none"
             d="m 0,0 c 0,14.906 6.869,22.363 20.607,22.363 4.464,0 8.95,-1.063 13.46,-3.187 v -6.435 c -4.162,2.426 -8.345,3.642 -12.548,3.642 -4.854,0 -8.418,-1.302 -10.695,-3.902 C 8.548,9.882 7.412,5.697 7.412,-0.067 c 0,-5.765 1.146,-9.913 3.444,-12.451 2.298,-2.536 5.917,-3.802 10.857,-3.802 4.247,0 8.364,1.172 12.354,3.51 v -6.437 c -1.997,-0.996 -4.174,-1.765 -6.536,-2.308 -2.361,-0.54 -4.67,-0.812 -6.924,-0.812 C 6.869,-22.367 0,-14.91 0,0" /></g><g
           transform="translate(695.5273,8.6282)"
           id="g140"><path
             id="path142"
             style="fill:#00557a;fill-opacity:1;fill-rule:nonzero;stroke:none"
             d="M 0,0 C -2.083,0.543 -4.292,1.422 -6.632,2.635 V 9.786 C -4.943,8.399 -2.873,7.282 -0.423,6.437 2.024,5.593 4.593,5.171 7.278,5.171 c 2.645,0 4.638,0.54 5.985,1.625 1.342,1.083 2.015,2.622 2.015,4.616 0,1.343 -0.39,2.447 -1.172,3.314 -0.78,0.867 -1.754,1.581 -2.926,2.146 -1.168,0.562 -2.816,1.234 -4.94,2.016 l -1.431,0.52 c -2.384,0.822 -4.346,1.666 -5.882,2.533 -1.54,0.867 -2.828,2.105 -3.87,3.708 -1.038,1.603 -1.559,3.661 -1.559,6.174 0,2.082 0.521,4.054 1.559,5.917 1.042,1.864 2.667,3.391 4.876,4.584 2.213,1.191 4.984,1.787 8.323,1.787 2.426,0 4.454,-0.228 6.079,-0.682 1.626,-0.454 3.561,-1.226 5.819,-2.308 V 34.1 c -2.213,1.386 -4.121,2.415 -5.723,3.088 -1.604,0.673 -3.511,1.006 -5.721,1.006 -2.559,0 -4.508,-0.517 -5.851,-1.558 -1.345,-1.041 -2.015,-2.407 -2.015,-4.095 0,-1.432 0.368,-2.591 1.104,-3.479 0.738,-0.889 1.702,-1.604 2.893,-2.146 1.193,-0.543 2.917,-1.182 5.171,-1.918 2.64,-0.866 4.841,-1.765 6.596,-2.698 1.755,-0.933 3.197,-2.209 4.324,-3.835 1.127,-1.625 1.692,-3.694 1.692,-6.209 C 22.624,9.872 22.09,7.694 21.03,5.724 19.967,3.749 18.322,2.168 16.091,0.978 13.855,-0.216 11.072,-0.812 7.735,-0.812 4.656,-0.812 2.079,-0.54 0,0" /></g></g></g></g></svg>